<svg width="64" height="64" viewBox="0 0 64 64" fill="none" xmlns="http://www.w3.org/2000/svg">
<path d="M10.3532 24.6579C8.24379 24.6579 6.54395 23.9411 5.25371 22.5075C3.96347 21.0739 3.31835 19.1795 3.31835 16.8243C3.31835 14.4691 3.99419 12.5747 5.34587 11.1411C6.71803 9.70748 8.43835 8.99068 10.5068 8.99068C12.5753 8.99068 14.1215 9.46172 15.1455 10.4038C16.1695 11.3254 16.6815 12.6156 16.6815 14.2745C16.6815 14.766 16.6406 15.2576 16.5587 15.7491H6.63611V16.8243C6.63611 19.118 6.96379 20.8588 7.61915 22.0467C8.27451 23.214 9.34971 23.7977 10.8447 23.7977C12.9542 23.7977 14.5823 22.8761 15.7292 21.0329C16.1798 21.1763 16.4051 21.3913 16.4051 21.678C16.4051 22.19 15.934 22.784 14.9919 23.4598C14.5414 23.7875 13.9065 24.0742 13.0873 24.32C12.2681 24.5452 11.3567 24.6579 10.3532 24.6579ZM13.7631 13.6294C13.7631 12.6873 13.5686 11.8784 13.1795 11.2025C12.647 10.3014 11.7868 9.85084 10.599 9.85084C8.38715 9.85084 7.09691 11.4483 6.72827 14.6432H13.7017C13.7427 14.295 13.7631 13.9571 13.7631 13.6294ZM17.9267 9.3286H24.3779V10.1273L22.2889 10.3116L26.6511 21.0329L30.3375 10.711L27.8799 10.1273V9.3286H33.7782V10.1273L31.6278 10.711L26.5283 24.32H25.2995L19.3705 10.2809L17.9267 10.0659V9.3286ZM41.8233 24.6579C39.7138 24.6579 38.014 23.9411 36.7238 22.5075C35.4335 21.0739 34.7884 19.1795 34.7884 16.8243C34.7884 14.4691 35.4642 12.5747 36.8159 11.1411C38.1881 9.70748 39.9084 8.99068 41.9769 8.99068C44.0454 8.99068 45.5916 9.46172 46.6156 10.4038C47.6396 11.3254 48.1516 12.6156 48.1516 14.2745C48.1516 14.766 48.1106 15.2576 48.0287 15.7491H38.1062V16.8243C38.1062 19.118 38.4338 20.8588 39.0892 22.0467C39.7446 23.214 40.8198 23.7977 42.3148 23.7977C44.4242 23.7977 46.0524 22.8761 47.1993 21.0329C47.6498 21.1763 47.8751 21.3913 47.8751 21.678C47.8751 22.19 47.4041 22.784 46.462 23.4598C46.0114 23.7875 45.3766 24.0742 44.5574 24.32C43.7382 24.5452 42.8268 24.6579 41.8233 24.6579ZM45.2332 13.6294C45.2332 12.6873 45.0386 11.8784 44.6495 11.2025C44.117 10.3014 43.2569 9.85084 42.069 9.85084C39.8572 9.85084 38.567 11.4483 38.1983 14.6432H45.1718C45.2127 14.295 45.2332 13.9571 45.2332 13.6294ZM60.3279 8.95996C60.8604 8.95996 61.2802 9.09308 61.5874 9.35932C61.8946 9.60508 62.0482 9.95324 62.0482 10.4038C62.0482 11.182 61.7513 11.694 61.1574 11.9398C60.8297 11.6736 60.2358 11.5404 59.3756 11.5404C58.5154 11.5404 57.686 11.8272 56.8873 12.4006C56.109 12.9536 55.7199 13.5884 55.7199 14.3052V23.4291L58.4847 23.5827V24.32H50.6818V23.5827L52.7094 23.4598V10.3424L50.2825 10.2195V9.51292L55.7199 9.175L55.5356 12.9536H55.6585C56.0066 11.8476 56.6415 10.9056 57.5631 10.1273C58.5052 9.34908 59.4268 8.95996 60.3279 8.95996ZM6.10295 46.2899C6.92215 46.2899 7.62871 46.0646 8.22263 45.614C8.83703 45.1635 9.14424 44.4057 9.14424 43.3408C9.14424 42.624 8.81655 42.03 8.16119 41.559C7.52631 41.088 6.72759 40.6681 5.76503 40.2995C4.80247 39.9104 4.14712 39.6441 3.79895 39.5008C3.47127 39.3369 3.03095 39.0809 2.47799 38.7328C1.47447 38.0569 0.972715 37.0841 0.972715 35.8144C0.972715 34.5446 1.47447 33.4899 2.47799 32.6502C3.48151 31.8105 4.94584 31.3907 6.87096 31.3907C8.09975 31.3907 9.14423 31.6672 10.0044 32.2201C10.885 32.7526 11.3254 33.3977 11.3254 34.1555C11.3254 34.9132 11.0386 35.4355 10.4652 35.7222C10.158 35.8656 9.85079 35.9372 9.54359 35.9372C9.25687 35.9372 8.97015 35.8758 8.68343 35.7529C8.76535 35.3843 8.80631 34.9849 8.80631 34.5548C8.80631 34.1248 8.70391 33.6947 8.49911 33.2646C8.15095 32.5273 7.48535 32.1587 6.50231 32.1587C5.51927 32.1587 4.77175 32.4249 4.25975 32.9574C3.74775 33.4899 3.49175 34.1862 3.49175 35.0464C3.49175 35.927 3.86039 36.5824 4.59767 37.0124C5.15063 37.3606 5.83671 37.678 6.65591 37.9648C7.47511 38.2515 8.02807 38.4563 8.31479 38.5792C8.62199 38.6816 9.02135 38.8659 9.51287 39.1321C10.0044 39.3984 10.373 39.6748 10.6188 39.9616C11.2537 40.6579 11.5711 41.6 11.5711 42.7878C11.5711 43.9756 11.0386 44.9894 9.97367 45.8291C8.90871 46.6483 7.60824 47.0579 6.07223 47.0579C4.53623 47.0579 3.18455 46.8224 2.01719 46.3513C0.870315 45.8803 0.296875 45.1942 0.296875 44.2931C0.296875 43.4534 0.921515 42.9004 2.17079 42.6342C2.53943 45.0713 3.85015 46.2899 6.10295 46.2899ZM23.6501 43.5251C23.6501 43.5865 23.6398 43.6582 23.6194 43.7401C23.2917 44.7436 22.7387 45.5526 21.9605 46.167C21.2027 46.7609 20.3119 47.0579 19.2879 47.0579C18.2639 47.0579 17.4037 46.7712 16.7074 46.1977C16.0315 45.6038 15.6936 44.4569 15.6936 42.7571C15.6936 42.286 15.7448 38.8761 15.8472 32.5273H13.7275V31.7286H15.8779L15.9087 27.2128H18.9192L18.8271 31.7286H23.22V32.5273H18.8271C18.7247 39.1424 18.6735 43.0131 18.6735 44.1395C18.6735 45.5116 19.124 46.1977 20.0251 46.1977C20.5781 46.1977 21.1515 45.8803 21.7454 45.2454C22.3598 44.6105 22.7899 43.8937 23.0357 43.095C23.4453 43.095 23.6501 43.2384 23.6501 43.5251ZM29.6498 52.9868C29.2402 53.4579 28.718 53.8777 28.0831 54.2464C27.4482 54.6355 26.8031 54.83 26.1478 54.83C25.5129 54.83 25.0111 54.656 24.6425 54.3078C24.2943 53.9801 24.1202 53.5296 24.1202 52.9561C24.1202 52.4032 24.3762 51.84 24.8882 51.2665C25.4617 51.9219 26.1068 52.2496 26.8236 52.2496C27.8476 52.2496 28.7282 51.799 29.4655 50.8979C30.2028 50.0172 30.9196 48.6246 31.6159 46.72L25.7177 32.7116L24.151 32.5273V31.7286H30.6943V32.5273L28.5746 32.7116L32.9676 43.4329L36.7462 33.111L34.2886 32.5273V31.7286H40.1868V32.5273L38.0364 33.111L32.8447 46.72C32.4761 47.662 32.1894 48.3891 31.9846 48.9011C31.7798 49.4131 31.4418 50.0992 30.9708 50.9593C30.5202 51.84 30.0799 52.5158 29.6498 52.9868ZM48.1551 46.72H41.0898V45.9827L43.1174 45.8291V24.663L40.3833 24.5401V23.8336L46.1279 23.1884V45.8291L48.1551 45.9827V46.72ZM57.4383 47.0579C55.3289 47.0579 53.629 46.3411 52.3388 44.9075C51.0486 43.4739 50.4034 41.5795 50.4034 39.2243C50.4034 36.8691 51.0793 34.9747 52.431 33.5411C53.8031 32.1075 55.5234 31.3907 57.5919 31.3907C59.6604 31.3907 61.2066 31.8617 62.2306 32.8038C63.2546 33.7254 63.7666 35.0156 63.7666 36.6745C63.7666 37.166 63.7257 37.6576 63.6438 38.1491H53.7212V39.2243C53.7212 41.518 54.0489 43.2588 54.7042 44.4467C55.3596 45.614 56.4348 46.1977 57.9298 46.1977C60.0393 46.1977 61.6674 45.2761 62.8143 43.4329C63.2649 43.5763 63.4902 43.7913 63.4902 44.078C63.4902 44.59 63.0191 45.184 62.077 45.8598C61.6265 46.1875 60.9916 46.4742 60.1724 46.72C59.3532 46.9452 58.4418 47.0579 57.4383 47.0579ZM60.8482 36.0294C60.8482 35.0873 60.6537 34.2784 60.2646 33.6025C59.7321 32.7014 58.8719 32.2508 57.6841 32.2508C55.4722 32.2508 54.182 33.8483 53.8134 37.0432H60.7868C60.8278 36.695 60.8482 36.3571 60.8482 36.0294Z" fill="white"/>
</svg>
