<svg width="64" height="64" viewBox="0 0 200 144" fill="none" xmlns="http://www.w3.org/2000/svg">
                        <path d="M32.3531 49.056C25.7611 49.056 20.4491 46.816 16.4171 42.336C12.3851 37.856 10.3691 31.936 10.3691 24.576C10.3691 17.216 12.4811 11.296 16.7051 6.816C20.9931 2.336 26.3691 0.0959988 32.8331 0.0959988C39.2971 0.0959988 44.1291 1.568 47.3291 4.512C50.5291 7.392 52.1291 11.424 52.1291 16.608C52.1291 18.144 52.0011 19.68 51.7451 21.216H20.7371V24.576C20.7371 31.744 21.7611 37.184 23.8091 40.896C25.8571 44.544 29.2171 46.368 33.8891 46.368C40.4811 46.368 45.5691 43.488 49.1531 37.728C50.5611 38.176 51.2651 38.848 51.2651 39.744C51.2651 41.344 49.7931 43.2 46.8491 45.312C45.4411 46.336 43.4571 47.232 40.8971 48C38.3371 48.704 35.4891 49.056 32.3531 49.056ZM43.0091 14.592C43.0091 11.648 42.4011 9.12 41.1851 7.008C39.5211 4.192 36.8331 2.784 33.1211 2.784C26.2091 2.784 22.1771 7.776 21.0251 17.76H42.8171C42.9451 16.672 43.0091 15.616 43.0091 14.592ZM56.0201 1.152H76.1801V3.648L69.6521 4.224L83.2841 37.728L94.8041 5.472L87.1241 3.648V1.152H105.556V3.648L98.8361 5.472L82.9001 48H79.0601L60.5321 4.128L56.0201 3.456V1.152ZM130.697 49.056C124.105 49.056 118.793 46.816 114.761 42.336C110.729 37.856 108.713 31.936 108.713 24.576C108.713 17.216 110.825 11.296 115.049 6.816C119.337 2.336 124.713 0.0959988 131.177 0.0959988C137.641 0.0959988 142.473 1.568 145.673 4.512C148.873 7.392 150.473 11.424 150.473 16.608C150.473 18.144 150.345 19.68 150.089 21.216H119.081V24.576C119.081 31.744 120.105 37.184 122.153 40.896C124.201 44.544 127.561 46.368 132.233 46.368C138.825 46.368 143.913 43.488 147.497 37.728C148.905 38.176 149.609 38.848 149.609 39.744C149.609 41.344 148.137 43.2 145.193 45.312C143.785 46.336 141.801 47.232 139.241 48C136.681 48.704 133.833 49.056 130.697 49.056ZM141.353 14.592C141.353 11.648 140.745 9.12 139.529 7.008C137.865 4.192 135.177 2.784 131.465 2.784C124.553 2.784 120.521 7.776 119.369 17.76H141.161C141.289 16.672 141.353 15.616 141.353 14.592ZM188.524 0C190.188 0 191.5 0.415999 192.46 1.248C193.42 2.016 193.9 3.104 193.9 4.512C193.9 6.944 192.972 8.544 191.116 9.312C190.092 8.48 188.236 8.064 185.548 8.064C182.86 8.064 180.268 8.96 177.772 10.752C175.34 12.48 174.124 14.464 174.124 16.704V45.216L182.764 45.696V48H158.38V45.696L164.716 45.312V4.32L157.132 3.936V1.728L174.124 0.671997L173.548 12.48H173.932C175.02 9.024 177.004 6.08 179.884 3.648C182.828 1.216 185.708 0 188.524 0ZM19.071 116.656C21.631 116.656 23.839 115.952 25.695 114.544C27.615 113.136 28.575 110.768 28.575 107.44C28.575 105.2 27.551 103.344 25.503 101.872C23.519 100.4 21.023 99.088 18.015 97.936C15.007 96.72 12.959 95.888 11.871 95.44C10.847 94.928 9.471 94.128 7.743 93.04C4.607 90.928 3.039 87.888 3.039 83.92C3.039 79.952 4.607 76.656 7.743 74.032C10.879 71.408 15.455 70.096 21.471 70.096C25.311 70.096 28.575 70.96 31.263 72.688C34.015 74.352 35.391 76.368 35.391 78.736C35.391 81.104 34.495 82.736 32.703 83.632C31.743 84.08 30.783 84.304 29.823 84.304C28.927 84.304 28.031 84.112 27.135 83.728C27.391 82.576 27.519 81.328 27.519 79.984C27.519 78.64 27.199 77.296 26.559 75.952C25.471 73.648 23.391 72.496 20.319 72.496C17.247 72.496 14.911 73.328 13.311 74.992C11.711 76.656 10.911 78.832 10.911 81.52C10.911 84.272 12.063 86.32 14.367 87.664C16.095 88.752 18.239 89.744 20.799 90.64C23.359 91.536 25.087 92.176 25.983 92.56C26.943 92.88 28.191 93.456 29.727 94.288C31.263 95.12 32.415 95.984 33.183 96.88C35.167 99.056 36.159 102 36.159 105.712C36.159 109.424 34.495 112.592 31.167 115.216C27.839 117.776 23.775 119.056 18.975 119.056C14.175 119.056 9.951 118.32 6.303 116.848C2.719 115.376 0.927 113.232 0.927 110.416C0.927 107.792 2.879 106.064 6.783 105.232C7.935 112.848 12.031 116.656 19.071 116.656ZM73.9058 108.016C73.9058 108.208 73.8738 108.432 73.8098 108.688C72.7858 111.824 71.0578 114.352 68.6258 116.272C66.2578 118.128 63.4738 119.056 60.2738 119.056C57.0738 119.056 54.3858 118.16 52.2098 116.368C50.0978 114.512 49.0418 110.928 49.0418 105.616C49.0418 104.144 49.2018 93.488 49.5218 73.648H42.8978V71.152H49.6178L49.7138 57.04H59.1218L58.8338 71.152H72.5618V73.648H58.8338C58.5138 94.32 58.3538 106.416 58.3538 109.936C58.3538 114.224 59.7618 116.368 62.5778 116.368C64.3058 116.368 66.0978 115.376 67.9538 113.392C69.8738 111.408 71.2178 109.168 71.9858 106.672C73.2658 106.672 73.9058 107.12 73.9058 108.016ZM92.655 137.584C91.375 139.056 89.743 140.368 87.759 141.52C85.775 142.736 83.759 143.344 81.711 143.344C79.727 143.344 78.159 142.8 77.007 141.712C75.919 140.688 75.375 139.28 75.375 137.488C75.375 135.76 76.175 134 77.775 132.208C79.567 134.256 81.583 135.28 83.823 135.28C87.023 135.28 89.775 133.872 92.079 131.056C94.383 128.304 96.623 123.952 98.799 118L80.367 74.224L75.471 73.648V71.152H95.919V73.648L89.295 74.224L103.023 107.728L114.831 75.472L107.151 73.648V71.152H125.583V73.648L118.863 75.472L102.639 118C101.487 120.944 100.591 123.216 99.951 124.816C99.311 126.416 98.255 128.56 96.783 131.248C95.375 134 93.999 136.112 92.655 137.584ZM150.484 118H128.405V115.696L134.741 115.216V49.072L126.197 48.688V46.48L144.149 44.464V115.216L150.484 115.696V118ZM179.494 119.056C172.902 119.056 167.59 116.816 163.558 112.336C159.526 107.856 157.51 101.936 157.51 94.576C157.51 87.216 159.622 81.296 163.846 76.816C168.134 72.336 173.51 70.096 179.974 70.096C186.438 70.096 191.27 71.568 194.47 74.512C197.67 77.392 199.27 81.424 199.27 86.608C199.27 88.144 199.142 89.68 198.886 91.216H167.878V94.576C167.878 101.744 168.902 107.184 170.95 110.896C172.998 114.544 176.358 116.368 181.03 116.368C187.622 116.368 192.71 113.488 196.294 107.728C197.702 108.176 198.406 108.848 198.406 109.744C198.406 111.344 196.934 113.2 193.99 115.312C192.582 116.336 190.598 117.232 188.038 118C185.478 118.704 182.63 119.056 179.494 119.056ZM190.15 84.592C190.15 81.648 189.542 79.12 188.326 77.008C186.662 74.192 183.974 72.784 180.262 72.784C173.35 72.784 169.318 77.776 168.166 87.76H189.958C190.086 86.672 190.15 85.616 190.15 84.592Z" fill="black"/>
                        </svg>